<?xml version="1.0" encoding="UTF-8"?>
<svg width="20px" height="20px" viewBox="0 0 20 20" version="1.1" xmlns="http://www.w3.org/2000/svg" xmlns:xlink="http://www.w3.org/1999/xlink">
    <!-- Generator: Sketch 52.5 (67469) - http://www.bohemiancoding.com/sketch -->
    <title>Help Black</title>
    <desc>Created with Sketch.</desc>
    <g id="Page-1" stroke="none" stroke-width="1" fill="none" fill-rule="evenodd">
        <g id="Homepage" transform="translate(-1297.000000, -29.000000)">
            <g id="Group-8" transform="translate(40.000000, 20.000000)">
                <g id="Group" transform="translate(1176.000000, 9.000000)">
                    <g id="Group-4" transform="translate(81.000000, 0.000000)">
                        <g id="Help-Black">
                            <g id="question-mark">
                                <path d="M9.87634744,0.750842018 L9.87637578,0.750841639 C4.76835742,0.819208614 0.682866462,5.01595189 0.750836488,10.1245632 C0.819209721,15.2310382 5.01613927,19.3171981 10.1236315,19.2492377 C15.2309467,19.1804645 19.3169795,14.9833562 19.2490144,9.87551447 C19.1806433,4.76879613 14.9836919,0.682677067 9.87634744,0.750842018 Z" id="Path" stroke="#333333" stroke-width="1.5" fill-rule="nonzero"></path>
                                <g id="Group-3" transform="translate(6.363636, 4.545455)" fill="#333333" fill-rule="nonzero">
                                    <path d="M3.50592885,9.96047431 L3.46175494,9.95977866 C2.78140711,9.93960474 2.30175494,9.43838735 2.32105929,8.76812648 C2.34001581,8.10934387 2.83132016,7.631083 3.4892332,7.631083 L3.52871146,7.63177866 C4.22801581,7.65247431 4.70227668,8.14864822 4.68262451,8.83821344 C4.66314625,9.49890909 4.17949407,9.96047431 3.50592885,9.96047431 Z" id="Path"></path>
                                    <path d="M6.36766798,4.28064822 C6.20766798,4.50795257 5.8558419,4.79021344 5.41253755,5.13560474 L4.92436364,5.47264822 C4.65636364,5.68099605 4.49462451,5.87699605 4.43392885,6.06986561 C4.38610277,6.2216917 4.36262451,6.26186561 4.35845059,6.57073518 L4.35775494,6.64916996 L2.49375494,6.64916996 L2.49914625,6.49143083 C2.52192885,5.843083 2.53792885,5.4616917 2.80662451,5.14656126 C3.22818972,4.65160474 4.15810277,4.05282213 4.19758103,4.02743083 C4.33079842,3.927083 4.44314625,3.81282213 4.52679842,3.69073518 C4.72245059,3.42099605 4.80905929,3.20864822 4.80905929,2.99995257 C4.80905929,2.71038735 4.72314625,2.44256126 4.5532332,2.20412648 C4.38992885,1.97403953 4.07966798,1.85751779 3.63097233,1.85751779 C3.18592885,1.85751779 2.8812332,1.99873518 2.69897233,2.28847431 C2.51149407,2.58638735 2.41671146,2.89925692 2.41671146,3.21890909 L2.41671146,3.29838735 L0.494798419,3.29838735 L0.49827668,3.21543083 C0.547841897,2.03821344 0.96801581,1.19056126 1.74662451,0.695952569 C2.2358419,0.380996047 2.84453755,0.221343874 3.55479842,0.221343874 C4.48453755,0.221343874 5.26940711,0.447256917 5.88732016,0.892822134 C6.51340711,1.3443004 6.83097233,2.02047431 6.83097233,2.90256126 C6.83097233,3.39595257 6.67514625,3.85943083 6.36766798,4.28064822 Z" id="Path"></path>
                                </g>
                            </g>
                        </g>
                    </g>
                </g>
            </g>
        </g>
    </g>
</svg>