<?xml version="1.0" encoding="UTF-8"?>
<svg width="20px" height="20px" viewBox="0 0 20 20" version="1.1" xmlns="http://www.w3.org/2000/svg" xmlns:xlink="http://www.w3.org/1999/xlink">
    <!-- Generator: Sketch 52.5 (67469) - http://www.bohemiancoding.com/sketch -->
    <title>analyze (1)</title>
    <desc>Created with Sketch.</desc>
    <g id="Page-1" stroke="none" stroke-width="1" fill="none" fill-rule="evenodd">
        <g id="HP---Signed-In" transform="translate(-812.000000, -30.000000)" fill="#333333">
            <g id="Group-14" transform="translate(812.000000, 30.000000)">
                <g id="analyze-(1)" transform="translate(-0.000000, 0.000000)">
                    <path d="M18.558255,0.0362416107 L1.44295302,0.0362416107 C0.647248322,0.0362416107 0,0.683557047 0,1.47919463 L0,1.71073826 C0,2.37201342 0.447583893,2.92932886 1.05530201,3.09926174 L1.05530201,15.3137584 C1.05530201,15.5918121 1.28067114,15.8171141 1.55865772,15.8171141 L9.49724832,15.8171141 L9.49724832,16.853557 C8.86295302,17.0648993 8.40416107,17.6638255 8.40416107,18.368255 C8.40416107,19.2485906 9.12033557,19.9648322 10.000604,19.9648322 C10.8808725,19.9648322 11.597047,19.2485906 11.597047,18.368255 C11.597047,17.6638255 11.138255,17.0648993 10.5039597,16.853557 L10.5039597,15.8171141 L18.4425503,15.8171141 C18.7205369,15.8171141 18.945906,15.5918121 18.945906,15.3137584 L18.945906,3.09932886 C19.5536242,2.92939597 20.0012081,2.37201342 20.0012081,1.71080537 L20.0012081,1.47926174 C20.0012081,0.683557047 19.3538926,0.0362416107 18.558255,0.0362416107 Z M10.000604,18.958255 C9.67536913,18.958255 9.41087248,18.6936913 9.41087248,18.3683893 C9.41087248,18.0431544 9.67536913,17.7785906 10.000604,17.7785906 C10.3258389,17.7785906 10.5903356,18.0431544 10.5903356,18.3683893 C10.5903356,18.6936242 10.3258389,18.958255 10.000604,18.958255 Z M17.9391946,14.8104698 L2.06201342,14.8104698 L2.06201342,3.15369128 L17.9391946,3.15369128 L17.9391946,14.8104698 Z M18.9944966,1.71073826 C18.9944966,1.95127517 18.7987919,2.14697987 18.558255,2.14697987 L1.44295302,2.14697987 C1.20241611,2.14697987 1.00671141,1.95127517 1.00671141,1.71073826 L1.00671141,1.47919463 C1.00671141,1.23865772 1.20241611,1.04295302 1.44295302,1.04295302 L18.558255,1.04295302 C18.7987919,1.04295302 18.9944966,1.23865772 18.9944966,1.47919463 L18.9944966,1.71073826 Z" id="Shape" fill-rule="nonzero"></path>
                    <path d="M3.44208054,13.6308054 C3.57087248,13.6308054 3.69973154,13.5816779 3.79805369,13.4833557 L5.72758389,11.5537584 L7.58939597,12.4845638 C7.81657718,12.5981208 8.09255034,12.524698 8.23328859,12.313557 L10.1402013,9.45302013 L13.0006711,11.3600671 C13.1234228,11.4419463 13.275906,11.4656376 13.4179195,11.4253691 C13.5597987,11.3848322 13.6767785,11.2841611 13.7379195,11.1499329 L15.7060403,6.82805369 L16.0996644,7.70691275 C16.1833557,7.8938255 16.3669799,8.00469799 16.5593289,8.00469799 C16.6281208,8.00469799 16.6979866,7.99053691 16.7647651,7.96060403 C17.0184564,7.84697987 17.1320805,7.54919463 17.0183893,7.29550336 L16.1111409,5.26986577 C16.0565772,5.14805369 15.9558389,5.05288591 15.8310738,5.00530201 C15.7063758,4.95785235 15.5677852,4.96174497 15.4459732,5.01624161 L13.4208054,5.9233557 C13.1671141,6.03697987 13.053557,6.33483221 13.1672483,6.58852349 C13.2810067,6.84228188 13.5787248,6.95577181 13.8324161,6.84208054 L14.7885906,6.41369128 L13.0669799,10.1942282 L10.2798658,8.33604027 C10.1687919,8.26208054 10.0327517,8.23510067 9.90194631,8.26127517 C9.77100671,8.28751678 9.65590604,8.36456376 9.58181208,8.47563758 L7.64214765,11.385302 L5.85328859,10.4909396 C5.65959732,10.3940268 5.42557047,10.4319463 5.27228188,10.5852349 L3.08624161,12.7714094 C2.88966443,12.9679866 2.88966443,13.2867114 3.08630872,13.4832215 C3.18442953,13.5816107 3.31328859,13.6308054 3.44208054,13.6308054 Z" id="Path"></path>
                </g>
            </g>
        </g>
    </g>
</svg>