<?xml version="1.0" encoding="UTF-8"?>
<svg width="17px" height="20px" viewBox="0 0 17 20" version="1.1" xmlns="http://www.w3.org/2000/svg" xmlns:xlink="http://www.w3.org/1999/xlink">
    <!-- Generator: Sketch 52.5 (67469) - http://www.bohemiancoding.com/sketch -->
    <title>emergency-exit</title>
    <desc>Created with Sketch.</desc>
    <g id="Page-1" stroke="none" stroke-width="1" fill="none" fill-rule="evenodd">
        <g id="HP---Signed-In" transform="translate(-931.000000, -29.000000)" fill="#333333">
            <g id="Group-13" transform="translate(931.000000, 29.000000)">
                <g id="emergency-exit">
                    <path d="M13.1926942,13.75 C13.0429974,13.75 12.8929955,13.6917976 12.7786523,13.5753485 C12.5503145,13.3426277 12.5503145,12.9650892 12.7786523,12.7323685 L14.8764998,10.5961947 L6.52286068,10.5961947 C6.19970915,10.5961947 5.9375,10.3293339 5.9375,10.0000532 C5.9375,9.67077247 6.19970915,9.40391168 6.52286068,9.40391168 L14.8417566,9.40391168 L12.7752956,7.26431946 C12.5493991,7.03022248 12.5515351,6.6540602 12.7804831,6.42289332 C13.0088209,6.19190402 13.3783549,6.19221479 13.6066926,6.42475793 L16.7036377,9.5786076 C16.8134037,9.69039524 16.875,9.84204995 16.875,10.0000976 C16.875,10.1581452 16.8134037,10.3097999 16.7036377,10.4215876 L13.6066926,13.5754373 C13.4923494,13.6917532 13.3423474,13.75 13.1926942,13.75 Z" id="Path"></path>
                    <path d="M12.2147207,20 L0.597779256,20 C0.267771986,20 0,19.7366807 0,19.4117699 L0,0.58823014 C0,0.263319286 0.267771986,0 0.597779256,0 L12.2147207,0 C12.544728,0 12.8125,0.263319286 12.8125,0.58823014 L12.8125,4.03306495 C12.8125,4.3579758 12.544728,4.62129509 12.2147207,4.62129509 C11.8847135,4.62129509 11.6169415,4.3579758 11.6169415,4.03306495 L11.6169415,1.17646028 L1.19555851,1.17646028 L1.19555851,18.8235397 L11.6169415,18.8235397 L11.6169415,15.9669351 C11.6169415,15.6420242 11.8847135,15.3787049 12.2147207,15.3787049 C12.544728,15.3787049 12.8125,15.6420242 12.8125,15.9669351 L12.8125,19.4117699 C12.8125445,19.7366807 12.5447725,20 12.2147207,20 Z" id="Path"></path>
                </g>
            </g>
        </g>
    </g>
</svg>