<?xml version="1.0" encoding="UTF-8"?>
<svg width="27px" height="20px" viewBox="0 0 27 20" version="1.1" xmlns="http://www.w3.org/2000/svg" xmlns:xlink="http://www.w3.org/1999/xlink">
    <!-- Generator: Sketch 52.5 (67469) - http://www.bohemiancoding.com/sketch -->
    <title>icon</title>
    <desc>Created with Sketch.</desc>
    <g id="Page-1" stroke="none" stroke-width="1" fill="none" fill-rule="evenodd">
        <g id="HP---Signed-In" transform="translate(-702.000000, -29.000000)" fill="#333333">
            <g id="Group-12" transform="translate(702.000000, 29.000000)">
                <g id="icon">
                    <path d="M13.9151605,14.5 C14.5136926,14.5 15,13.9933259 15,13.3720095 C15,12.7520418 14.5136926,12.2489001 13.9151605,12.2489001 L9,8.5 L12.830259,13.4443915 C12.8658092,14.032953 13.3386769,14.5 13.9151605,14.5 Z" id="Path"></path>
                    <rect id="Rectangle" x="8" y="17.5" width="11" height="2.5"></rect>
                    <path d="M23.0459403,3.94497458 C20.4960508,1.40100669 17.1059126,0 13.5,0 C9.89402445,0 6.50382331,1.40100669 3.95399675,3.94497458 C1.4041702,6.48894248 0,9.87129126 0,13.4689815 C0,15.7919559 0.58658159,18.0244355 1.68792488,20 L4.21112582,20 L6.05660127,18.9368577 L5.24159339,17.5283778 L2.86857848,18.8954096 C2.03021812,17.2668783 1.55662225,15.4221263 1.55662225,13.4689815 C1.55662225,13.1233299 1.57235842,12.7812579 1.60137592,12.442954 L4.43086575,12.9407073 L4.71392803,11.3390544 L1.85114046,10.8354607 C2.36269198,8.5820059 3.51609053,6.56901256 5.10884303,4.9983201 L7.04848373,7.30465254 L8.29724349,6.25928263 L6.34287373,3.93555457 C8.13497207,2.59295195 10.3164463,1.74144585 12.6849921,1.58149408 L12.6849921,4.66604495 L14.3150079,4.66604495 L14.3150079,1.58149408 C16.6835537,1.74157145 18.8650279,2.59301475 20.6571892,3.93561737 L18.7027565,6.25928263 L19.9514533,7.30465254 L21.891157,4.9982573 C23.4838465,6.56901256 24.6372451,8.5820059 25.1487966,10.8353979 L22.286072,11.3391172 L22.5691972,12.9406445 L25.3984982,12.4428284 C25.4275157,12.7811951 25.4432519,13.1232043 25.4432519,13.4688559 C25.4432519,15.4221263 24.9698448,17.2669411 24.1313586,18.8953468 L21.7582807,17.5284406 L20.9433358,18.9368577 L22.7887483,19.9998744 L25.3120751,19.9998744 C26.4134814,18.0243099 27,15.7918303 27,13.4688559 C27.0000629,9.87122846 25.5957039,6.48881688 23.0459403,3.94497458 Z" id="Path"></path>
                </g>
            </g>
        </g>
    </g>
</svg>