<?xml version="1.0" encoding="UTF-8"?>
<svg width="20px" height="20px" viewBox="0 0 20 20" version="1.1" xmlns="http://www.w3.org/2000/svg" xmlns:xlink="http://www.w3.org/1999/xlink">
    <!-- Generator: Sketch 52.5 (67469) - http://www.bohemiancoding.com/sketch -->
    <title>Group 15</title>
    <desc>Created with Sketch.</desc>
    <defs>
        <circle id="path-1" cx="10" cy="10" r="10"></circle>
    </defs>
    <g id="Page-1" stroke="none" stroke-width="1" fill="none" fill-rule="evenodd">
        <g id="HP---Signed-In" transform="translate(-1123.000000, -29.000000)">
            <g id="Group-2" transform="translate(1123.000000, 29.000000)">
                <g id="Group-15">
                    <g id="Group-4">
                        <g id="Group-3">
                            <mask id="mask-2" fill="white">
                                <use xlink:href="#path-1"></use>
                            </mask>
                            <g id="Mask" fill-rule="nonzero"></g>
                            <g mask="url(#mask-2)" fill-rule="nonzero" id="Oval" stroke="#333333" stroke-width="1.5">
                                <g transform="translate(3.636364, 3.636364)">
                                    <circle cx="6.36363636" cy="3.52941176" r="2.77941176"></circle>
                                    <path d="M11.9772727,12.7272727 C11.9772727,9.62694697 9.46396212,7.11363636 6.36363636,7.11363636 C3.26331061,7.11363636 0.75,9.62694697 0.75,12.7272727 C0.75,15.5668348 3.15854539,17.3844336 6.36302165,17.3818071 C9.56631556,17.3791817 11.9772727,15.5584455 11.9772727,12.7272727 Z"></path>
                                </g>
                            </g>
                        </g>
                        <circle id="Oval" stroke="#333333" stroke-width="1.5" fill-rule="nonzero" cx="10" cy="10" r="9.25"></circle>
                    </g>
                    <g id="settings-work-tool" transform="translate(12.000000, 12.000000)" fill-rule="nonzero">
                        <path d="M7.9749672,3.55584666 C7.96231643,3.44339146 7.83119484,3.35888635 7.7178141,3.35888635 C7.35123921,3.35888635 7.02595051,3.14364983 6.88953048,2.81077886 C6.75016356,2.46984137 6.84002873,2.07222978 7.11322599,1.82163149 C7.19922151,1.74302001 7.20966957,1.61142539 7.13754525,1.52001462 C6.94992678,1.28176913 6.73667931,1.06656238 6.50384547,0.880049867 C6.41267057,0.806885525 6.27889976,0.817065429 6.19983984,0.904606654 C5.96140989,1.16865909 5.53312897,1.26679694 5.20218463,1.12871338 C4.85778581,0.983843219 4.64060916,0.634868954 4.66186247,0.260266332 C4.66885761,0.142602116 4.58286209,0.0402970537 4.46555217,0.0266345505 C4.16675568,-0.00792354591 3.86533974,-0.00899511479 3.56565026,0.0242532863 C3.44967983,0.0370525813 3.36368431,0.136946614 3.36758373,0.25312254 C3.38062147,0.624034202 3.16082537,0.966906478 2.8198497,1.10656762 C2.49286431,1.24012678 2.06758981,1.14282237 1.82963612,0.881121436 C1.75099294,0.794919672 1.61939508,0.784323047 1.52777368,0.855731206 C1.28803401,1.04382131 1.06999413,1.25920666 0.880649197,1.49548759 C0.806798422,1.58734486 0.817663207,1.72048729 0.904521959,1.7995155 C1.18292837,2.05163184 1.27282331,2.45269626 1.12818771,2.79756285 C0.990100749,3.1263559 0.648678584,3.33825865 0.257814202,3.33825865 C0.130978993,3.33418073 0.0406375571,3.41931093 0.0267663515,3.53462364 C-0.00841769383,3.83513918 -0.00883442533,4.14133999 0.0250398924,4.44429633 C0.0376013705,4.55722778 0.172711676,4.64098875 0.287342606,4.64098875 C0.635670607,4.63208877 0.970097637,4.84774201 1.11038732,5.189126 C1.25023051,5.53006349 1.16033557,5.92743695 0.88672157,6.1782436 C0.80114278,6.25685509 0.790277994,6.38824134 0.862402311,6.47965212 C1.04826456,6.71637954 1.26154179,6.93179465 1.49520909,7.11985499 C1.58686026,7.19370395 1.72021434,7.18328592 1.79966122,7.09574469 C2.03898417,6.83103741 2.46723532,6.73307816 2.79686994,6.87142961 C3.14213199,7.01585328 3.35930863,7.36479778 3.33805533,7.73960876 C3.33111972,7.85733251 3.41753198,7.95981617 3.53436563,7.97327031 C3.68721679,7.99110003 3.84099071,8 3.99518137,8 C4.14154343,8 4.28793525,7.99196323 4.43429731,7.97568134 C4.5502975,7.96288204 4.63623348,7.86298801 4.63233407,7.74660373 C4.61890936,7.37590042 4.83909243,7.03302815 5.17962159,6.89360513 C5.50880971,6.759153 5.93229822,6.85755874 6.17028167,7.11899178 C6.24937136,7.20501495 6.38004645,7.21540322 6.47217388,7.14423319 C6.71146706,6.95658957 6.92906044,6.74138282 7.11929837,6.50444703 C7.19311937,6.41279813 7.18270109,6.27944733 7.09539584,6.20044889 C6.81698943,5.94833255 6.72664799,5.5472086 6.87128359,5.20258014 C7.00725713,4.87816266 7.33599875,4.66033652 7.68959543,4.66033652 L7.73906741,4.66161645 C7.85375787,4.67093314 7.95928024,4.58258824 7.97318121,4.46551934 C8.00842479,4.16473591 8.00884152,3.858803 7.9749672,3.55584666 Z" id="Path" fill="#333333"></path>
                        <path d="M4.00634382,5.34268777 C3.27057459,5.34268777 2.67208862,4.74421655 2.67208862,4.00846545 C2.67208862,3.27274412 3.27057459,2.67424313 4.00634382,2.67424313 C4.74208329,2.67424313 5.34056925,3.27274412 5.34056925,4.00846545 C5.34056925,4.74421655 4.74208329,5.34268777 4.00634382,5.34268777 Z" id="Path" fill="#FFFFFF"></path>
                    </g>
                </g>
            </g>
        </g>
    </g>
</svg>