<?xml version="1.0" encoding="UTF-8"?>
<svg width="200px" height="29px" viewBox="0 0 200 29" version="1.1" xmlns="http://www.w3.org/2000/svg" xmlns:xlink="http://www.w3.org/1999/xlink">
    <!-- Generator: Sketch 52.5 (67469) - http://www.bohemiancoding.com/sketch -->
    <title>Logo CodeInsight</title>
    <desc>Created with Sketch.</desc>
    <g id="Page-1" stroke="none" stroke-width="1" fill="none" fill-rule="evenodd">
        <g id="Homepage" transform="translate(-40.000000, -20.000000)">
            <g id="Group-8" transform="translate(40.000000, 20.000000)">
                <g id="Logo-CodeInsight">
                    <path d="M0.155440415,12.6875 C0.777205181,12.6875 1.3160599,12.4700022 1.77202073,12.035 C2.22798155,11.5999978 2.45595855,10.8853621 2.45595855,9.89107143 L2.45595855,4.04964286 C2.45595855,3.34535362 2.55440316,2.73946682 2.75129534,2.23196429 C2.94818751,1.72446175 3.21761487,1.30500166 3.55958549,0.973571429 C3.90155611,0.6421412 4.29533456,0.403929296 4.74093264,0.258928571 C5.18653073,0.113927846 5.64766601,0.0414285714 6.12435233,0.0414285714 L8.23834197,0.0414285714 L8.23834197,2.18535714 L6.65284974,2.18535714 C6.30051637,2.18535714 6.02072642,2.2526779 5.8134715,2.38732143 C5.60621658,2.52196496 5.45077772,2.69803463 5.34715026,2.91553571 C5.2435228,3.1330368 5.17098466,3.37124871 5.12953368,3.63017857 C5.08808269,3.88910844 5.06735751,4.15321294 5.06735751,4.4225 L5.06735751,10.1085714 C5.06735751,10.7921463 4.95855031,11.3617834 4.74093264,11.8175 C4.52331497,12.2732166 4.25906891,12.6408915 3.94818653,12.9205357 C3.63730415,13.20018 3.31606383,13.4124993 2.98445596,13.5575 C2.65284808,13.7025007 2.38342073,13.785357 2.1761658,13.8060714 L2.1761658,13.8682143 C2.38342073,13.8889287 2.65284808,13.961428 2.98445596,14.0857143 C3.31606383,14.2100006 3.63730415,14.4119629 3.94818653,14.6916071 C4.25906891,14.9712514 4.52331497,15.3492833 4.74093264,15.8257143 C4.95855031,16.3021452 5.06735751,16.9132106 5.06735751,17.6589286 L5.06735751,23.2517857 C5.06735751,23.5210728 5.08808269,23.7851773 5.12953368,24.0441071 C5.17098466,24.303037 5.2435228,24.5412489 5.34715026,24.75875 C5.45077772,24.9762511 5.60621658,25.1523208 5.8134715,25.2869643 C6.02072642,25.4216078 6.30051637,25.4889286 6.65284974,25.4889286 L8.23834197,25.4889286 L8.23834197,27.6328571 L6.12435233,27.6328571 C5.64766601,27.6328571 5.18653073,27.5603579 4.74093264,27.4153571 C4.29533456,27.2703564 3.90155611,27.0321445 3.55958549,26.7007143 C3.21761487,26.3692841 2.94818751,25.9550025 2.75129534,25.4578571 C2.55440316,24.9607118 2.45595855,24.3496465 2.45595855,23.6246429 L2.45595855,17.9075 C2.45595855,16.8510661 2.22798155,16.1001808 1.77202073,15.6548214 C1.3160599,15.2094621 0.777205181,14.9867857 0.155440415,14.9867857 L0.155440415,12.6875 Z" id="{" fill="#1C5393" fill-rule="evenodd"></path>
                    <path d="M83.0569948,12.6875 C83.6787596,12.6875 84.2176143,12.4700022 84.6735751,12.035 C85.129536,11.5999978 85.357513,10.8853621 85.357513,9.89107143 L85.357513,4.04964286 C85.357513,3.34535362 85.4559576,2.73946682 85.6528497,2.23196429 C85.8497419,1.72446175 86.1191693,1.30500166 86.4611399,0.973571429 C86.8031105,0.6421412 87.196889,0.403929296 87.642487,0.258928571 C88.0880851,0.113927846 88.5492204,0.0414285714 89.0259067,0.0414285714 L91.1398964,0.0414285714 L91.1398964,2.18535714 L89.5544041,2.18535714 C89.2020708,2.18535714 88.9222808,2.2526779 88.7150259,2.38732143 C88.507771,2.52196496 88.3523321,2.69803463 88.2487047,2.91553571 C88.1450772,3.1330368 88.0725391,3.37124871 88.0310881,3.63017857 C87.9896371,3.88910844 87.9689119,4.15321294 87.9689119,4.4225 L87.9689119,10.1085714 C87.9689119,10.7921463 87.8601047,11.3617834 87.642487,11.8175 C87.4248694,12.2732166 87.1606233,12.6408915 86.8497409,12.9205357 C86.5388585,13.20018 86.2176182,13.4124993 85.8860104,13.5575 C85.5544025,13.7025007 85.2849751,13.785357 85.0777202,13.8060714 L85.0777202,13.8682143 C85.2849751,13.8889287 85.5544025,13.961428 85.8860104,14.0857143 C86.2176182,14.2100006 86.5388585,14.4119629 86.8497409,14.6916071 C87.1606233,14.9712514 87.4248694,15.3492833 87.642487,15.8257143 C87.8601047,16.3021452 87.9689119,16.9132106 87.9689119,17.6589286 L87.9689119,23.2517857 C87.9689119,23.5210728 87.9896371,23.7851773 88.0310881,24.0441071 C88.0725391,24.303037 88.1450772,24.5412489 88.2487047,24.75875 C88.3523321,24.9762511 88.507771,25.1523208 88.7150259,25.2869643 C88.9222808,25.4216078 89.2020708,25.4889286 89.5544041,25.4889286 L91.1398964,25.4889286 L91.1398964,27.6328571 L89.0259067,27.6328571 C88.5492204,27.6328571 88.0880851,27.5603579 87.642487,27.4153571 C87.196889,27.2703564 86.8031105,27.0321445 86.4611399,26.7007143 C86.1191693,26.3692841 85.8497419,25.9550025 85.6528497,25.4578571 C85.4559576,24.9607118 85.357513,24.3496465 85.357513,23.6246429 L85.357513,17.9075 C85.357513,16.8510661 85.129536,16.1001808 84.6735751,15.6548214 C84.2176143,15.2094621 83.6787596,14.9867857 83.0569948,14.9867857 L83.0569948,12.6875 Z" id="{" fill="#1C5393" fill-rule="evenodd" transform="translate(87.098446, 13.837143) scale(-1, 1) translate(-87.098446, -13.837143) "></path>
                    <path d="M21.6442681,19.0797991 C22.4403645,19.0797991 23.236449,18.8977418 24.0325453,18.5336217 C24.855628,18.1560156 25.4695576,17.6772722 25.8743523,17.0973772 L28.0804728,18.594308 C27.4462943,19.5383232 26.5220268,20.3002668 25.3076425,20.8801618 C24.1067513,21.4600568 22.8856388,21.75 21.6442681,21.75 C19.6607738,21.75 17.9674077,21.0487421 16.5641192,19.6462054 C15.1608306,18.2436686 14.4591969,16.5579526 14.4591969,14.5890067 C14.4591969,12.6065749 15.1608306,10.914116 16.5641192,9.51157924 C17.9674077,8.10904247 19.6607738,7.4077846 21.6442681,7.4077846 C22.8991319,7.4077846 24.0730191,7.72469921 25.165965,8.35853795 C26.2184314,8.96540482 27.0684877,9.78803424 27.7161593,10.8264509 L25.5100389,12.3031529 C24.6194904,10.8197005 23.330913,10.0779855 21.6442681,10.0779855 C20.3894043,10.0779855 19.3234608,10.5162717 18.4464054,11.3928571 C17.5693501,12.2829286 17.130829,13.3483011 17.130829,14.5890067 C17.130829,15.8297123 17.5693501,16.888342 18.4464054,17.7649275 C19.3234608,18.6415129 20.3894043,19.0797991 21.6442681,19.0797991 Z M37.7104922,21.75 C35.740491,21.75 34.0538714,21.0487421 32.6505829,19.6462054 C31.2472944,18.2436686 30.5456606,16.5579526 30.5456606,14.5890067 C30.5456606,12.6065749 31.2472944,10.914116 32.6505829,9.51157924 C34.0538714,8.10904247 35.740491,7.4077846 37.7104922,7.4077846 C39.6939866,7.4077846 41.3873527,8.10904247 42.7906412,9.51157924 C44.1939297,10.914116 44.8955635,12.6065749 44.8955635,14.5890067 C44.8955635,16.5579526 44.1939297,18.2436686 42.7906412,19.6462054 C41.3873527,21.0487421 39.6939866,21.75 37.7104922,21.75 Z M54.8898964,19.0797991 C56.1447602,19.0797991 57.2107037,18.6415129 58.0877591,17.7649275 C58.9648144,16.888342 59.4033355,15.8297123 59.4033355,14.5890067 C59.4033355,13.3483011 58.9648144,12.2829286 58.0877591,11.3928571 C57.1972106,10.5162717 56.131267,10.0779855 54.8898964,10.0779855 C53.6485257,10.0779855 52.5893287,10.5162717 51.7122733,11.3928571 C50.835218,12.2829286 50.3966969,13.3483011 50.3966969,14.5890067 C50.3966969,15.8297123 50.835218,16.888342 51.7122733,17.7649275 C52.5893287,18.6415129 53.6485257,19.0797991 54.8898964,19.0797991 Z M62.0749676,1.09640067 L62.0749676,14.5890067 C62.0749676,16.5579526 61.3733339,18.2436686 59.9700453,19.6462054 C58.5667568,21.0487421 56.8733907,21.75 54.8898964,21.75 C52.9198952,21.75 51.2332756,21.0487421 49.829987,19.6462054 C48.4266985,18.2436686 47.7250648,16.5579526 47.7250648,14.5890067 C47.7250648,12.6065749 48.4266985,10.914116 49.829987,9.51157924 C51.2332756,8.10904247 52.9198952,7.4077846 54.8898964,7.4077846 C56.5630481,7.4077846 58.0675128,7.95395659 59.4033355,9.04631696 L59.4033355,1.09640067 L62.0749676,1.09640067 Z M72.0895402,10.0779855 C71.0910464,10.0779855 70.1937648,10.3746715 69.3976684,10.9680525 C68.6285583,11.5614334 68.0955865,12.323377 67.798737,13.2539063 L76.3601036,13.2539063 C76.0632541,12.323377 75.5302823,11.5614334 74.7611723,10.9680525 C73.9650759,10.3746715 73.0745408,10.0779855 72.0895402,10.0779855 Z M79.1329339,15.9038783 L67.798737,15.9241071 C68.0955865,16.8411504 68.6285583,17.5963512 69.3976684,18.1897321 C70.1937648,18.7831131 71.0910464,19.0797991 72.0895402,19.0797991 C72.8856365,19.0797991 73.681721,18.8977418 74.4778174,18.5336217 C75.3143932,18.1560156 75.9283227,17.6772722 76.3196244,17.0973772 L78.5257448,18.594308 C77.8915663,19.5383232 76.9672988,20.3002668 75.7529145,20.8801618 C74.5520234,21.4600568 73.3309108,21.75 72.0895402,21.75 C70.1060458,21.75 68.4126797,21.0487421 67.0093912,19.6462054 C65.6061027,18.2436686 64.9044689,16.5579526 64.9044689,14.5890067 C64.9044689,12.6065749 65.6061027,10.914116 67.0093912,9.51157924 C68.4126797,8.10904247 70.1060458,7.4077846 72.0895402,7.4077846 C74.0595414,7.4077846 75.7461609,8.10904247 77.1494495,9.51157924 C78.552738,10.914116 79.2543718,12.6065749 79.2543718,14.5890067 C79.2543718,15.0340424 79.2138929,15.4723286 79.1329339,15.9038783 Z" id="Combined-Shape" fill="#1C5393" fill-rule="evenodd"></path>
                    <polygon id="Path" fill="#333333" fill-rule="evenodd" points="102.590674 21.75 102.590674 7.25 105.262306 7.25 105.262306 21.75"></polygon>
                    <path d="M111.180376,21.75 L108.508744,21.75 L108.508744,14.5890067 C108.508744,12.6065749 109.210377,10.914116 110.613666,9.51157924 C112.016954,8.10904247 113.703574,7.4077846 115.673575,7.4077846 C117.65707,7.4077846 119.350436,8.10904247 120.753724,9.51157924 C122.157013,10.914116 122.858646,12.6065749 122.858646,14.5890067 L122.858646,21.75 L120.187014,21.75 L120.187014,14.5890067 C120.187014,13.3483011 119.741747,12.2829286 118.851198,11.3928571 C117.974143,10.5162717 116.914946,10.0779855 115.673575,10.0779855 C114.432205,10.0779855 113.373007,10.5162717 112.495952,11.3928571 C111.618897,12.2829286 111.180376,13.3483011 111.180376,14.5890067 L111.180376,21.75 Z" id="Path" fill="#333333" fill-rule="evenodd"></path>
                    <path d="M126.194139,21.75 L126.194139,19.0797991 L134.836464,19.0797991 C135.268245,19.0797991 135.639301,18.9247132 135.949644,18.6145368 C136.259986,18.3043604 136.415155,17.9335029 136.415155,17.5019531 C136.415155,17.0569174 136.259986,16.679317 135.949644,16.3691406 C135.639301,16.0724502 135.268245,15.9241071 134.836464,15.9241071 L129.938472,15.9038783 C128.764567,15.9038783 127.766088,15.4925636 126.943005,14.6699219 C126.106429,13.8337942 125.688148,12.8291074 125.688148,11.6558315 C125.688148,10.4825555 126.106429,9.48461163 126.943005,8.66196987 C127.766088,7.82584217 128.764567,7.4077846 129.938472,7.4077846 L137.406898,7.4077846 L137.406898,10.0779855 L129.938472,10.0779855 C129.50669,10.0779855 129.135634,10.2330714 128.825291,10.5432478 C128.514949,10.8534242 128.35978,11.2242817 128.35978,11.6558315 C128.35978,12.1008672 128.514949,12.4784676 128.825291,12.788644 C129.135634,13.0988204 129.50669,13.2539063 129.938472,13.2539063 L134.836464,13.2539063 C136.010369,13.2539063 137.015594,13.665221 137.85217,14.4878627 C138.675252,15.3239904 139.086788,16.3286772 139.086788,17.5019531 C139.086788,18.6752291 138.675252,19.6799158 137.85217,20.5160435 C137.015594,21.3386853 136.010369,21.75 134.836464,21.75 L126.194139,21.75 Z" id="Path" fill="#333333" fill-rule="evenodd"></path>
                    <polygon id="Path" fill="#333333" fill-rule="evenodd" points="141.968912 21.75 141.968912 7.25 144.640544 7.25 144.640544 21.75"></polygon>
                    <g id="Group" stroke-width="1" fill-rule="evenodd" transform="translate(147.150259, 7.250000)" fill="#333333">
                        <path d="M14.7992228,7.35923549 L14.7992228,14.5202288 C14.7992228,16.5026606 14.0975891,18.1883766 12.6943005,19.5774275 C11.291012,20.9799642 9.59764593,21.6812221 7.61415155,21.6812221 L7.61415155,19.0110212 C8.85552218,19.0110212 9.92146575,18.572735 10.8120142,17.6961496 C11.6890696,16.8195641 12.1275907,15.7609344 12.1275907,14.5202288 L12.1275907,12.8816964 C10.7917679,13.9740568 9.28730327,14.5202288 7.61415155,14.5202288 C5.64415034,14.5202288 3.95753076,13.8189709 2.55424223,12.4164342 C1.15095369,11.0138974 0.449319948,9.32818135 0.449319948,7.35923549 C0.449319948,5.3768037 1.15095369,3.68434481 2.55424223,2.28180804 C3.95753076,0.879271261 5.64415034,0.178013393 7.61415155,0.178013393 C9.59764593,0.178013393 11.291012,0.879271261 12.6943005,2.28180804 C14.0975891,3.68434481 14.7992228,5.3768037 14.7992228,7.35923549 Z M7.61415155,11.8500279 C8.86901534,11.8500279 9.93495891,11.4117417 10.8120142,10.5351563 C11.6890696,9.65857077 12.1275907,8.5999411 12.1275907,7.35923549 C12.1275907,6.11852988 11.6890696,5.05315735 10.8120142,4.16308594 C9.93495891,3.28650045 8.86901534,2.84821429 7.61415155,2.84821429 C6.37278093,2.84821429 5.31358383,3.28650045 4.4365285,4.16308594 C3.55947316,5.05315735 3.12095207,6.11852988 3.12095207,7.35923549 C3.12095207,8.5999411 3.55947316,9.65857077 4.4365285,10.5351563 C5.31358383,11.4117417 6.37278093,11.8500279 7.61415155,11.8500279 Z" id="Combined-Shape"></path>
                        <path d="M11.9963887,17.7660004 C11.3228817,17.3687994 10.56378,17.1702009 9.71907383,17.1702009 C8.47770321,17.1702009 7.41850611,17.6084871 6.54145078,18.4850725 C5.83922501,19.1977198 5.41812656,19.3397768 5.27814867,20.551744 L2.55424223,21.6812221 C2.55424223,19.6987903 3.25587597,18.0063314 4.65916451,16.6037946 C6.06245304,15.2012579 7.74907262,14.5 9.71907383,14.5 C11.7025682,14.5 13.3959343,15.2012579 14.7992228,16.6037946 L11.9963887,17.7660004 Z" id="Combined-Shape" transform="translate(8.676733, 18.090611) rotate(-180.000000) translate(-8.676733, -18.090611) "></path>
                    </g>
                    <path d="M167.653012,21.75 L164.98138,21.75 L164.98138,1.09640067 L167.653012,1.09640067 L167.653012,9.00585938 C168.975341,7.94047086 170.419088,7.4077846 171.984294,7.4077846 C173.954295,7.4077846 175.620675,8.10904247 176.983484,9.51157924 C178.319307,10.9006301 178.987209,12.593089 178.987209,14.5890067 L178.987209,21.75 L176.315576,21.75 L176.315576,14.5890067 C176.315576,13.3348152 175.904041,12.2694426 175.080959,11.3928571 C174.244383,10.5162717 173.212172,10.0779855 171.984294,10.0779855 C170.756417,10.0779855 169.724205,10.5162717 168.88763,11.3928571 C168.064547,12.2694426 167.653012,13.3348152 167.653012,14.5890067 L167.653012,21.75 Z" id="Path" fill="#333333" fill-rule="evenodd"></path>
                    <path d="M186.431347,19.0797991 L190.76263,19.0797991 L190.76263,21.75 L186.431347,21.75 C185.257442,21.75 184.252217,21.3386853 183.415641,20.5160435 C182.592558,19.6799158 182.181023,18.6752291 182.181023,17.5019531 L182.160784,2.51241629 L184.832416,2.51241629 L184.832416,7.4077846 L189.568491,7.4077846 L189.568491,10.0779855 L184.832416,10.0779855 L184.832416,17.5019531 C184.832416,17.9335029 184.987585,18.3043604 185.297927,18.6145368 C185.60827,18.9247132 185.986073,19.0797991 186.431347,19.0797991 Z" id="Path" fill="#333333" fill-rule="evenodd"></path>
                    <path d="M196.613472,6.07757143 C196.729534,6.07757143 196.835233,6.04028609 196.93057,5.96571429 C197.025907,5.89114248 197.073575,5.79171491 197.073575,5.66742857 C197.073575,5.53485648 197.01969,5.43957172 196.911917,5.38157143 C196.804145,5.32357114 196.704664,5.29457143 196.613472,5.29457143 L196.029016,5.29457143 L196.029016,6.07757143 L196.613472,6.07757143 Z M197.160622,7.85485714 L196.476684,6.62442857 L196.029016,6.62442857 L196.029016,7.85485714 L195.270466,7.85485714 L195.270466,4.67314286 L196.638342,4.67314286 C196.787566,4.67314286 196.932642,4.68971412 197.073575,4.72285714 C197.214508,4.75600017 197.343005,4.80985677 197.459067,4.88442857 C197.57513,4.95900037 197.668393,5.06049936 197.73886,5.18892857 C197.809327,5.31735778 197.84456,5.47685619 197.84456,5.66742857 C197.84456,5.88285822 197.784457,6.0609993 197.664249,6.20185714 C197.544041,6.34271499 197.392747,6.44628538 197.210363,6.51257143 L198.055959,7.85485714 L197.160622,7.85485714 Z M193.641451,6.30128571 C193.641451,5.9118552 193.716061,5.545216 193.865285,5.20135714 C194.014509,4.85749828 194.217615,4.55921555 194.474611,4.3065 C194.731608,4.05378445 195.032123,3.85285789 195.376166,3.70371429 C195.720209,3.55457068 196.087045,3.48 196.476684,3.48 C196.866323,3.48 197.233159,3.55457068 197.577202,3.70371429 C197.921245,3.85285789 198.22176,4.05378445 198.478756,4.3065 C198.735753,4.55921555 198.938859,4.85749828 199.088083,5.20135714 C199.237306,5.545216 199.311917,5.9118552 199.311917,6.30128571 C199.311917,6.69071623 199.237306,7.05528402 199.088083,7.395 C198.938859,7.73471598 198.735753,8.03092731 198.478756,8.28364286 C198.22176,8.53635841 197.921245,8.73521356 197.577202,8.88021429 C197.233159,9.02521501 196.866323,9.09771429 196.476684,9.09771429 C196.087045,9.09771429 195.720209,9.02521501 195.376166,8.88021429 C195.032123,8.73521356 194.731608,8.53635841 194.474611,8.28364286 C194.217615,8.03092731 194.014509,7.73471598 193.865285,7.395 C193.716061,7.05528402 193.641451,6.69071623 193.641451,6.30128571 Z M194.089119,6.30128571 C194.089119,6.62443019 194.151295,6.93099855 194.275648,7.221 C194.400001,7.51100145 194.569947,7.76578462 194.785492,7.98535714 C195.001037,8.20492967 195.253885,8.37685652 195.544041,8.50114286 C195.834198,8.62542919 196.145076,8.68757143 196.476684,8.68757143 C196.808292,8.68757143 197.11917,8.62542919 197.409326,8.50114286 C197.699483,8.37685652 197.952331,8.20492967 198.167876,7.98535714 C198.383421,7.76578462 198.553367,7.51100145 198.67772,7.221 C198.802073,6.93099855 198.864249,6.62443019 198.864249,6.30128571 C198.864249,5.96985549 198.802073,5.65914431 198.67772,5.36914286 C198.553367,5.07914141 198.383421,4.82642965 198.167876,4.611 C197.952331,4.39557035 197.699483,4.22571491 197.409326,4.10142857 C197.11917,3.97714224 196.808292,3.915 196.476684,3.915 C196.145076,3.915 195.834198,3.97714224 195.544041,4.10142857 C195.253885,4.22571491 195.001037,4.39557035 194.785492,4.611 C194.569947,4.82642965 194.400001,5.07914141 194.275648,5.36914286 C194.151295,5.65914431 194.089119,5.96985549 194.089119,6.30128571 Z" id="®" fill="#333333" fill-rule="evenodd"></path>
                    <ellipse id="Oval" fill="#333333" fill-rule="nonzero" cx="103.88601" cy="4.40178571" rx="1.29533679" ry="1.29464286"></ellipse>
                    <ellipse id="Oval" fill="#333333" fill-rule="nonzero" cx="143.264249" cy="4.40178571" rx="1.29533679" ry="1.29464286"></ellipse>
                </g>
            </g>
        </g>
    </g>
</svg>